Coordinates
version=1
nRows=16
nColumns=40
inDegrees=yes

Units are S.I. units (second, meters, Newtons, ...)
Angles are in degrees.

endheader
time	pelvis_tilt	pelvis_list	pelvis_rotation	pelvis_tx	pelvis_ty	pelvis_tz	hip_flexion_r	hip_adduction_r	hip_rotation_r	knee_angle_r	knee_angle_r_beta	ankle_angle_r	subtalar_angle_r	mtp_angle_r	hip_flexion_l	hip_adduction_l	hip_rotation_l	knee_angle_l	knee_angle_l_beta	ankle_angle_l	subtalar_angle_l	mtp_angle_l	lumbar_extension	lumbar_bending	lumbar_rotation	arm_flex_r	arm_add_r	arm_rot_r	elbow_flex_r	pro_sup_r	wrist_flex_r	wrist_dev_r	arm_flex_l	arm_add_l	arm_rot_l	elbow_flex_l	pro_sup_l	wrist_flex_l	wrist_dev_l
     43.24628571	     -0.44274646	     -4.72427484	      1.37520807	      1.17135617	      0.90844867	      0.54528987	     13.72614079	      6.95027169	     -3.86909294	     33.29951955	     33.29951955	     20.22620189	    -12.96382904	     -1.05862848	     30.46677096	    -12.40681994	     11.01625303	     71.05485257	     71.05485257	      8.44751076	    -19.10687850	     13.19063827	    -10.63373670	      3.83299651	     -1.95109533	     22.31178651	    -15.40186599	     -2.32137762	     72.49693381	     44.77486560	      0.00000000	      0.00000000	      2.60551113	     -7.37947810	      2.29211150	     25.20366396	     46.05645928	      0.00000000	      0.00000000
     43.26757143	     -0.33853475	     -4.82341391	      2.19896723	      1.17124810	      0.90757965	      0.54532544	     13.46697317	      7.11062092	     -4.21284083	     33.52030199	     33.52030199	     20.58866274	    -13.62517707	     -0.63196273	     31.58776046	    -12.27359042	     11.02921023	     70.15614395	     70.15614395	      9.81509360	    -19.24438538	     14.88111615	    -10.62273359	      3.75240713	     -1.94466656	     25.44493250	    -15.43999679	     -2.05894670	     75.30237963	     44.69849086	      0.00000000	      0.00000000	     -0.01689741	     -6.80588585	      3.06223592	     23.47664950	     45.86468579	      0.00000000	      0.00000000
     43.28885714	     -0.35144414	     -4.87912705	      3.07139647	      1.17081232	      0.90728097	      0.54484842	     13.18691883	      7.15077171	     -4.68563869	     33.42123107	     33.42123107	     20.80248561	    -13.99820537	     -0.26387132	     32.54595945	    -12.07335692	     10.87629999	     68.42538043	     68.42538043	     11.03057402	    -19.32332650	     15.99811953	    -10.59846163	      3.67318716	     -1.81846101	     28.56963601	    -15.60266074	     -1.93338783	     77.98535652	     44.63025857	      0.00000000	      0.00000000	     -2.55647292	     -6.32271118	      3.75369219	     22.20700214	     45.67550993	      0.00000000	      0.00000000
     43.31014286	     -0.50349454	     -4.87424264	      3.99632403	      1.17005477	      0.90755261	      0.54385144	     12.91327522	      7.05753067	     -5.28027496	     33.02797736	     33.02797736	     20.95893273	    -14.16350108	      0.11600598	     33.33595577	    -11.75342719	     10.60604278	     65.88466439	     65.88466439	     12.04072673	    -19.33057458	     16.84929968	    -10.49493540	      3.58718851	     -1.61523804	     31.64103543	    -16.03907959	     -1.72293203	     80.75929340	     44.56070102	      0.00000000	      0.00000000	     -4.95075938	     -5.98702643	      4.61157571	     21.41403226	     45.43689999	      0.00000000	      0.00000000
     43.33142857	     -0.74460082	     -4.81609438	      4.94036807	      1.16908021	      0.90831921	      0.54240457	     12.61896284	      6.84475463	     -5.96893319	     32.42401233	     32.42401233	     21.18668067	    -14.03492966	      0.97429964	     33.85898242	    -11.31085875	     10.29749983	     62.60424991	     62.60424991	     12.64276155	    -19.28663944	     16.96645156	    -10.32338043	      3.49555731	     -0.97037139	     34.28147706	    -17.01610578	     -1.71225100	     84.08174892	     44.74438152	      0.00000000	      0.00000000	     -8.07914127	     -7.63678296	     17.89974959	     24.01935753	     42.69449255	      0.00000000	      0.00000000
     43.35271429	     -0.99963766	     -4.69996970	      5.91032534	      1.16788292	      0.90976318	      0.54055909	     12.13702533	      6.54488327	     -6.71548825	     31.41215861	     31.41215861	     21.00885540	    -13.87321988	      1.10562551	     34.02050199	    -10.72073075	     10.03869999	     58.66069423	     58.66069423	     12.86865942	    -19.18848019	     16.80755722	    -10.24575866	      3.28747466	     -0.87018184	     37.45548467	    -17.27864490	     -1.86166883	     86.30945871	     44.69786262	      0.00000000	      0.00000000	    -10.10410217	     -7.45433956	     18.08207638	     23.59801830	     42.65520466	      0.00000000	      0.00000000
     43.37400000	     -1.41395591	     -4.54719982	      6.90318182	      1.16654771	      0.91129616	      0.53815783	     11.69332573	      6.13216680	     -7.59272714	     30.17260942	     30.17260942	     20.81948574	    -13.49446450	      1.09896321	     34.05935669	    -10.02300857	      9.78799468	     54.28218808	     54.28218808	     12.56733163	    -18.97167634	     15.94624870	     -9.99347984	      3.15109260	     -0.77987211	     40.48041751	    -17.77434944	     -1.71612319	     88.77735187	     44.63728797	      0.00000000	      0.00000000	    -12.12832141	     -7.40716271	     18.28458447	     23.78378697	     42.61048348	      0.00000000	      0.00000000
     43.39528571	     -1.80896680	     -4.39194397	      7.85554221	      1.16513753	      0.91305888	      0.53554782	     11.13141040	      5.72401881	     -8.48600133	     28.76776500	     28.76776500	     20.55458472	    -13.00124895	      1.01681324	     33.78566382	     -9.32461957	      9.59937560	     49.58173042	     49.58173042	     11.81193081	    -18.58379852	     14.64072892	     -9.84584942	      2.97504727	     -0.59206333	     43.40467250	    -18.39402796	     -1.52387172	     91.06275885	     44.58292601	      0.00000000	      0.00000000	    -13.96020558	     -7.50797101	     18.50261928	     24.42567956	     42.56398690	      0.00000000	      0.00000000
     43.41657143	     -2.29981709	     -4.33482564	      8.75532212	      1.16368112	      0.91453952	      0.53280894	     10.66612929	      5.42191800	     -9.33865946	     27.29908001	     27.29908001	     19.87978231	    -12.72579262	     -0.08201870	     33.32626272	     -8.87697522	      9.20884124	     44.47461365	     44.47461365	      9.14076672	    -18.18855400	      9.03677617	     -9.58115087	      2.89236379	     -0.36486322	     46.21939983	    -19.12394546	     -1.23948401	     93.08011311	     44.60628315	      0.00000000	      0.00000000	    -16.09575257	     -8.23284495	     20.52081241	     26.96799924	     42.44709337	      0.00000000	      0.00000000
     43.43785714	     -2.70363346	     -4.22516308	      9.58963753	      1.16231111	      0.91612322	      0.52978878	     10.06951464	      5.09735052	    -10.09701293	     25.84510400	     25.84510400	     19.66606195	    -12.24842282	      0.10880661	     32.82127510	     -8.27400989	      9.01820252	     40.00256675	     40.00256675	      8.67488863	    -16.96107057	      9.45278721	     -9.41607633	      2.73823511	     -0.09358832	     48.96784718	    -19.55776158	     -1.35189528	     94.55286650	     44.58163441	      0.00000000	      0.00000000	    -17.22343144	     -8.28733419	     20.65801898	     27.10545900	     42.43100062	      0.00000000	      0.00000000
     43.45914286	     -3.10284453	     -4.25330763	     10.39092777	      1.16110882	      0.91724608	      0.52663420	      9.45222736	      4.89031793	    -11.03308557	     24.33590990	     24.33590990	     19.22546608	    -11.57474876	     -0.64514179	     32.26144714	     -7.92487923	      8.67870535	     35.72486900	     35.72486900	      7.16655002	    -15.55753584	      7.11956992	     -9.27686740	      2.74405256	      0.14251245	     51.47299275	    -20.21230779	     -0.99929101	     96.63471763	     44.58112179	      0.00000000	      0.00000000	    -18.84055335	     -8.91900202	     21.63066953	     29.65342738	     42.49203774	      0.00000000	      0.00000000
     43.48042857	     -3.46546230	     -4.24448626	     11.09646590	      1.16007751	      0.91812386	      0.52337894	      8.90251782	      4.69609467	    -11.70031926	     23.09049247	     23.09049247	     19.10112993	    -11.12175596	     -0.51713815	     31.77914130	     -7.57036120	      8.23266198	     32.23509864	     32.23509864	      6.80830421	    -13.62276826	      7.57582350	     -9.12841024	      2.66776137	      0.35366117	     53.88709023	    -20.39937293	     -1.08341696	     97.83887702	     44.56264625	      0.00000000	      0.00000000	    -19.53227740	     -8.94061746	     21.72551811	     29.84181682	     42.49468666	      0.00000000	      0.00000000
     43.50171429	     -3.77410222	     -4.40854766	     11.76352389	      1.15930394	      0.91855713	      0.52003023	      8.29734377	      4.66055310	    -12.58906516	     21.82502854	     21.82502854	     18.96475246	    -10.30402745	     -0.72730271	     31.44310093	     -7.47351579	      7.60827909	     29.49161607	     29.49161607	      6.49058393	    -11.38068713	      7.36804340	     -9.02373496	      2.79249195	      0.51040464	     56.04687703	    -20.66146561	     -0.83263332	     99.60252216	     44.52714645	      0.00000000	      0.00000000	    -20.35627331	     -9.13429014	     21.78559877	     31.10865762	     42.54233560	      0.00000000	      0.00000000
     43.52300000	     -4.06809906	     -4.43544199	     12.31753345	      1.15872863	      0.91870923	      0.51655817	      7.85233335	      4.51595453	    -13.06510174	     20.96924093	     20.96924093	     18.93660876	    -10.07097869	     -0.72724121	     31.06053117	     -7.19536319	      7.06311879	     27.29134320	     27.29134320	      6.21096178	     -9.78782123	      7.45109995	     -8.92444533	      2.70771239	      0.69799810	     57.99990929	    -20.68827669	     -0.88917799	    100.66665880	     44.51154766	      0.00000000	      0.00000000	    -20.69183800	     -9.17456156	     21.82057362	     31.64084223	     42.56201007	      0.00000000	      0.00000000
     43.54428571	     -4.32016890	     -4.62759523	     12.84223136	      1.15846571	      0.91842373	      0.51304106	      7.39418466	      4.53650309	    -13.68630486	     20.14258905	     20.14258905	     18.91656023	     -9.61632099	     -0.95527186	     30.89857685	     -7.15260679	      6.37174912	     25.90041356	     25.90041356	      5.96786871	     -8.07652165	      6.63051427	     -8.83122529	      2.79011841	      0.78005302	     59.60776963	    -20.68720426	     -0.79022675	    102.27613740	     44.48309182	      0.00000000	      0.00000000	    -21.10483839	     -9.33213870	     21.85194447	     32.90125534	     42.61947484	      0.00000000	      0.00000000
     43.56557143	     -4.55118355	     -4.72643850	     13.27460959	      1.15841211	      0.91791630	      0.50934901	      7.06368174	      4.44972378	    -14.05048717	     19.67517453	     19.67517453	     18.97526762	     -9.50495389	     -1.08869547	     30.72727607	     -6.96162889	      5.89343661	     25.00467500	     25.00467500	      5.75805116	     -7.12665747	      5.77979508	     -8.76142660	      2.74706533	      0.87904885	     61.02169836	    -20.54190245	     -0.82009190	    103.54104858	     44.46627488	      0.00000000	      0.00000000	    -21.14845159	     -9.41071547	     21.93274358	     33.66650842	     42.66906165	      0.00000000	      0.00000000
